<svg xmlns="http://www.w3.org/2000/svg" xmlns:xlink="http://www.w3.org/1999/xlink" width="373" height="246" viewBox="0 0 373 246">
  <defs>
    <clipPath id="clip-path">
      <rect id="Rectangle_25" data-name="Rectangle 25" width="373" height="246" transform="translate(1547 1175)" fill="#fff" stroke="#707070" stroke-width="1"/>
    </clipPath>
    <clipPath id="clip-path-2">
      <rect id="Rectangle_21" data-name="Rectangle 21" width="335.776" height="355.389" fill="#2b488b"/>
    </clipPath>
  </defs>
  <g id="Mask_Group_6" data-name="Mask Group 6" transform="translate(-1547 -1175)" clip-path="url(#clip-path)">
    <g id="Group_51" data-name="Group 51" transform="translate(1581.558 1213.299) rotate(-11)">
      <g id="Group_50" data-name="Group 50" clip-path="url(#clip-path-2)">
        <path id="Path_80" data-name="Path 80" d="M297.5,351.5c12.4-31.757,26.088-68.856,31.436-107.229,5.706-40.909.916-78.649-13.852-109.143-17.133-35.37-49.127-61.109-83.491-67.162-37.879-6.672-77.921,12.441-93.152,44.461q-.759,1.591-1.425,3.238c24.617,6.4,50.2,15.717,68.835,34.292,10.7,10.667,19.787,27.432,13.19,42.5-7.406,16.928-30.358,20.538-47.372,14.173-16.011-5.984-28.777-19.032-35.942-36.737-6.946-17.171-7.432-36.454-1.529-52.772-4.316-1.093-8.594-2.1-12.791-3.067l-6.5-1.477c-28.091-6.368-57.14-12.956-80.583-29.933C10.188,65.162-8.323,30.486,4.913.66l1.931.859C-5.944,30.327,12.1,63.937,35.563,80.934c23.093,16.722,51.928,23.258,79.814,29.58l6.5,1.48c4.29.983,8.663,2.015,13.074,3.139q.737-1.838,1.584-3.619c15.621-32.841,56.651-52.46,95.424-45.632,35.02,6.172,67.6,32.352,85.026,68.324,14.948,30.869,19.807,69.029,14.043,110.354-5.382,38.6-19.113,75.836-31.56,107.709ZM137.687,169.1c6.94,17.15,19.269,29.777,34.723,35.555,16.185,6.047,38,2.252,44.7-13.043,6.174-14.109-3.009-30.453-12.751-40.157-18.341-18.286-43.7-27.47-68.1-33.8-5.8,15.87-5.348,34.691,1.434,51.448" transform="translate(0.946 1.248)" fill="#2b488b"/>
        <path id="Path_81" data-name="Path 81" d="M297.5,351.5c12.4-31.757,26.088-68.856,31.436-107.229,5.706-40.909.916-78.649-13.852-109.143-17.133-35.37-49.127-61.109-83.491-67.162-37.879-6.672-77.921,12.441-93.152,44.461q-.759,1.591-1.425,3.238c24.617,6.4,50.2,15.717,68.835,34.292,10.7,10.667,19.787,27.432,13.19,42.5-7.406,16.928-30.358,20.538-47.372,14.173-16.011-5.984-28.777-19.032-35.942-36.737-6.946-17.171-7.432-36.454-1.529-52.772-4.316-1.093-8.594-2.1-12.791-3.067l-6.5-1.477c-28.091-6.368-57.14-12.956-80.583-29.933C10.188,65.162-8.323,30.486,4.913.66l1.931.859C-5.944,30.327,12.1,63.937,35.563,80.934c23.093,16.722,51.928,23.258,79.814,29.58l6.5,1.48c4.29.983,8.663,2.015,13.074,3.139q.737-1.838,1.584-3.619c15.621-32.841,56.651-52.46,95.424-45.632,35.02,6.172,67.6,32.352,85.026,68.324,14.948,30.869,19.807,69.029,14.043,110.354-5.382,38.6-19.113,75.836-31.56,107.709ZM137.687,169.1c6.94,17.15,19.269,29.777,34.723,35.555,16.185,6.047,38,2.252,44.7-13.043,6.174-14.109-3.009-30.453-12.751-40.157-18.341-18.286-43.7-27.47-68.1-33.8C130.449,133.518,130.905,152.339,137.687,169.1Z" transform="translate(0.946 1.248)" fill="#2b488b"/>
      </g>
    </g>
  </g>
</svg>
