<svg xmlns="http://www.w3.org/2000/svg" xmlns:xlink="http://www.w3.org/1999/xlink" width="482" height="843" viewBox="0 0 482 843">
  <defs>
    <clipPath id="clip-path">
      <rect id="Rectangle_17" data-name="Rectangle 17" width="482" height="843" transform="translate(115 237)" fill="#fff" stroke="#707070" stroke-width="1"/>
    </clipPath>
    <clipPath id="clip-path-2">
      <rect id="Rectangle_12" data-name="Rectangle 12" width="442.062" height="901.528" fill="none"/>
    </clipPath>
  </defs>
  <g id="Mask_Group_1" data-name="Mask Group 1" transform="translate(-115 -237)" clip-path="url(#clip-path)">
    <g id="Group_10" data-name="Group 10" transform="translate(140.336 236.015)">
      <g id="Group_9" data-name="Group 9" transform="translate(0 18)" clip-path="url(#clip-path-2)">
        <path id="Path_66" data-name="Path 66" d="M51.511,870.027c.553-8.389,14.849-166.6,15.866-191.036a156.994,156.994,0,0,1,1.54-18.6c-7.795-12.34-15.825-26.411-23.224-40.522-11.658-22.225-21.756-44.553-26.927-60.356-5.392-16.479-10.153-33.265-13.527-48.6C2.205,497.126.284,484.461.014,474.174-.375,459.33,7.3,440.789,15.141,421.859c3.735-9.019,7.505-18.129,10.425-26.876.769-2.312,3.442-10.386,6.421-19.381,10.392-31.375,25.565-77.185,31.52-92.762a50.1,50.1,0,0,1,17.1-21.847c8.453-6.249,17.779-9.274,23.7-7.959a17.042,17.042,0,0,1,6.152,2.649c.494-3.129,2.28-5.487,5.942-7.087l.846-.371a93.986,93.986,0,0,1,14.562-5.409,47.774,47.774,0,0,1-.622-13.784,128.8,128.8,0,0,1,3.7-19.586,1.421,1.421,0,0,1,.052-.171l.006-.015c.194-.505,5.428-14.411,4.329-44.7-.57-15.671-.436-27.558,1.2-37.125,1.619-9.466,4.7-16.676,9.98-23a2.854,2.854,0,0,1-.842.132c-2.088,0-3.388-2.04-3.388-7.929,0-1.583.058-3.3.205-5.124-1.2-.715-2.658-1.643-4.452-2.79-1.546-.989-3.379-2.161-5.994-3.789-4.783-2.98-10.081-6.329-15.1-9.5C109.053,67.97,98.8,61.49,95.7,60.134a.843.843,0,0,0-.3-.076,27,27,0,0,1,4.02,13.519c.244,7.531,1.427,61.589,1.533,99.934.058,21.48-.307,38.19-1.527,39.585a3.476,3.476,0,0,1-1.369.976,4.3,4.3,0,0,1-3.992-.73,13.676,13.676,0,0,1-3.232-3.25,21.917,21.917,0,0,1-3.843-8.671c-.719-4.087.026-37.728.7-68.013.41-18.5.792-35.728.792-44.32,0-11.031.453-19.206,1.486-24.408A19.293,19.293,0,0,1,91.583,59.6c-1.246-2.056-1.969-3.541-1.015-5.21V54.38l.017-.022a1.5,1.5,0,0,1,.978-.7c4.748-2.7,25.515-10.885,49.625-19.966C175.52,20.756,216.813,5.772,227.648,2.369c17.721-5.553,25.574-.363,34.474,5.517,1.129.745,2.274,1.5,3.379,2.2,4.975,3.131,12.286,9.31,19.295,15.894,7.594,7.134,14.875,14.784,18.466,19.571.6.8,1.319,1.712,1.961,2.526a23.745,23.745,0,0,1,2.867,4.131c2.086,4.454-1.036,6.113-14.074,12.217A173.627,173.627,0,0,1,273.734,72.8c-5.053,1.585-8.475,1.974-11.148,1.563-2.928-.451-3.854-4.1-5.087-8.978-1.617-6.38-3.854-15.218-11.34-19.923a43.084,43.084,0,0,0-23.084-6.655A77.124,77.124,0,0,0,208.768,40l.041-.006c12.228-1.542,23.216.022,30.928,2.917,12.34,4.623,16.624,20.979,19.793,33.083.525,2,1.017,3.882,1.5,5.545a87.559,87.559,0,0,1,3.282,14.743c.153.112.3.227.449.339,3.729,2.954,8.369,14.713,12.038,28.856,3.466,13.361,6.145,28.964,6.424,41.267.084,3.673.145,6.938.2,9.846.3,16.451.389,21.4,3.707,32.783a79.051,79.051,0,0,1,2.684,23.531A108.644,108.644,0,0,1,286,258.871c-1.265,4.584-2.526,8.33-3.632,11.608-2.779,8.246-4.526,13.424-2.576,21.605,2.8,11.768,5.551,17.82,5.558,17.839a1.508,1.508,0,0,1-2.246,1.855c-.054-.039-18.753-12.9-18.753-53.872,0-15.056,1.5-27.649,3-40.235,2.5-21.007,5-42,.415-74.471-1.667-11.8-2.913-20.886-3.876-27.953a75,75,0,0,1-1.49,18.673,112.687,112.687,0,0,0-1.883,18.1c-.473,10.174-.915,19.668-7.318,31.734-9.613,18.118-22.4,22.864-23.643,23.289l-.039.015c-.9.333-1.9.654-2.891.978a33.149,33.149,0,0,0-5.571,2.174,2.973,2.973,0,0,0-.514.333l.114.086a3.012,3.012,0,0,0,2.291.22,16.212,16.212,0,0,0,3.219-1.233q1.574-.735,3.1-1.334,1.6-.625,3.187-1.125a7.358,7.358,0,0,1,2.3-.384,3.408,3.408,0,0,1,2.671,1.168c2.917,3.45-.333,10.872-2.509,15.842-.589,1.347-1.093,2.5-1.326,3.224-.117.363-.222.745-.307,1.131A21.214,21.214,0,0,0,238,225.294a9.183,9.183,0,0,0,3.038-4.234c.067-.218.158-.527.246-.842.659-2.3,1.395-4.871,4.21-5.1l.006,0a4.081,4.081,0,0,1,1.581.207,7.49,7.49,0,0,1,1.09.464l.086.041a22.652,22.652,0,0,1,11.992,18.092c.35,4.606-.734,9.025-1.816,13.441-.35,1.421-.7,2.839-1,4.3a67.331,67.331,0,0,0-.3,23.71,98,98,0,0,0,7.883,25.9c1.49,3.232,3.3,6.344,5.109,9.451a80.084,80.084,0,0,1,7.039,14.156,41.23,41.23,0,0,1,1.956,17.561,41.881,41.881,0,0,1-2.682,11.062,74.621,74.621,0,0,0,7.238-6.309,31.694,31.694,0,0,0,8.043-12.418l.019-.065a31.235,31.235,0,0,0,1.287-6.773c.212-2.356.242-4.759.244-7.145,0-4.187-.071-8.408-.406-12.646a75.275,75.275,0,0,0-1.922-12.325c-.384-1.535-.8-2.954-1.209-4.372a66.369,66.369,0,0,1-2.081-8.579,41.881,41.881,0,0,1-.432-5.7c-.028-1.9.039-3.766.132-5.616.408-8.075,1.445-16.112,2.479-24.133l.505-3.932a1.514,1.514,0,0,1,1.511-1.455c.022,0,6.974,0,21.622,4.023,6.735,1.848,11.17,5.454,13.951,9.792q.534.836.989,1.7a6.287,6.287,0,0,1,4.489-3.481c3.055-.6,6.881.89,11.668,3.083,3.787,1.736,8.114,5.564,12.245,9.988q.687.735,1.365,1.494c8.414-11.081,10.606-12.923,21.452-4.785.6.449,1.4,1.039,2.142,1.587,9.377,6.933,12.018,8.883,4.159,20.819a63.126,63.126,0,0,0-4.444,8.106c-.43.9-.833,1.742-1.246,2.546a49.139,49.139,0,0,1,4.2,5.3l.056.093a154.259,154.259,0,0,1,8.019,18.021c2.284,5.942,4.8,13.195,7.212,21.56,3.2,11.094,6.864,22.847,11.8,35.677a367.022,367.022,0,0,0,19.4,42.13c12.763,23.788,11.925,38.259,10.105,69.641-.581,10.017-1.261,21.769-1.628,36.009-1.442,56.353-45.782,114.4-56.139,127.957l-1.352,1.773c-1.021,1.362-2.55,3.466-4.331,5.918-2.22,3.057-4.854,6.683-7.831,10.669a5.129,5.129,0,0,1,1.7.093,1.5,1.5,0,0,1,1.164,1.328c0,.048,1.494,16.056,3.4,31.66,1.682,13.819,42.385,187.2,43.741,193.778m-1.229,3.027a1.515,1.515,0,0,1-1.5-1.313c-.456-2.189-42.18-180.076-44.015-195.136-1.568-12.858-2.891-26.424-3.282-30.5a6.7,6.7,0,0,0-3.176,1.313c-2.55,3.347-5.3,6.877-8.222,10.485-.2.361-.4.73-.6,1.112a7.706,7.706,0,0,1-2.634,3.293,3.8,3.8,0,0,1-.609.263c-4.472,5.35-9.274,10.774-14.3,15.948-10.289,10.6-16.436,13.163-20.7,8.142-3.755-4.422-5.32-15.458-6.858-32.742-1.429-16.093,2.433-28.752,7.046-43.873,5.221-17.105,11.416-37.408,11.815-69.475.738-59.087-1.421-87.072-2.217-97.382l-.045-.594c-.369-4.787.5-6.56,2.932-6.747,1.378-.106,3.055.577,5.363,1.516a55.4,55.4,0,0,0,10.116,3.263,13.712,13.712,0,0,0,13.441-4.714,26.343,26.343,0,0,0,5.99-12.4,31.436,31.436,0,0,0,.639-6.313c0-.674-.013-1.33-.039-1.965a25.194,25.194,0,0,1-4.718,14.022,20.782,20.782,0,0,1-13.3,8.479l-.063.013c-.594.095-1.185.164-1.773.2h-.006c-10.99.732-15.827-12.273-17.952-17.988-.281-.756-.51-1.373-.684-1.773l0,0c-.484-1.09-1.73-1.255-3.2-1.447a11.826,11.826,0,0,1-5.72-1.889,16.838,16.838,0,0,1-2.569-2.254c-1.46-1.5-2.634-2.7-8.8-3.329a25.133,25.133,0,0,1-11.383-4.189,33.765,33.765,0,0,1-9.349-9.5c-.751-1.147-1.578-2.321-2.41-3.507-.974-1.388-1.956-2.785-2.818-4.128-2.457-3.824-3.813-7.188-1.3-8.8a4.979,4.979,0,0,1,2.1-.717,35.974,35.974,0,0,1-3.412-4.066,18.553,18.553,0,0,1-2.416-4.359c-.581-1.645-.583-3.088.186-4.135a2.84,2.84,0,0,1,.654-.641c1.067-.762,3.2-1.274,6-1.462a9.518,9.518,0,0,1-1.736-1.814,6.711,6.711,0,0,1-1.216-2.906,6.242,6.242,0,0,1,.186-2.675,6.414,6.414,0,0,1,2.217-3.3,18.055,18.055,0,0,1,5.206-1.369,6.7,6.7,0,0,1-1.8-.982,3.892,3.892,0,0,1-1.57-2.781,4.685,4.685,0,0,1,.713-2.753,8.864,8.864,0,0,1,5.061-3.785c1.868-.423,4.191-1.157,6.968-2.036q1.312-.415,2.764-.866a41.155,41.155,0,0,1,2.859-4.383c.335-.475.689-.978,1.343-1.917,3.174-4.565,5.461-7.115,7.246-7.942,2.673-1.237,4.221.117,5.253,3.63.073.246.194.691.313,1.121a7.8,7.8,0,0,0,1.023,2.762c.566.369,2.33-1.542,7.268-9.1a68.74,68.74,0,0,1,5.184-6.989c-3.055-.7-5.877.419-11.949,3.982-5.787,3.4-9.846,5.173-12.277,5.564a4.261,4.261,0,0,1-2.842-.33,2.58,2.58,0,0,1-1.278-2.619,10.392,10.392,0,0,1,1.915-4.454,23.124,23.124,0,0,1,8.235-7.741c-1.943.81-3.6,1.278-4.793.952-1.719-.469-2.416-1.861-1.647-4.67l.525-1.982c2.151-8.129,6.786-25.647,12.59-24.282,2.354.557,6.074,2.887,9.976,5.333,1.03.643,2.073,1.3,3.1,1.926-.279-3.375,1.382-8.427,4.051-14.074,4.983-10.541,13.419-23.553,18.712-30.672-.57-.639-1.147-1.272-1.723-1.891-3.9-4.174-7.911-7.756-11.286-9.3-4.267-1.954-7.611-3.295-9.837-2.859-1.533.3-2.658,1.654-3.386,4.595a31.47,31.47,0,0,1,1.185,12.044c-.248,2.8-.309,7.238-.374,12.031-.138,10.25-.3,22.086-2.6,24.1-1.062.933-2.172.879-3.334-.384l-.089-.093c-4.873-5.545-1.76-24.146.434-37.255.525-3.142,1-5.964,1.28-8.086q.155-1.176.369-2.192a20.633,20.633,0,0,0-2.088-4.321c-2.41-3.757-6.283-6.89-12.2-8.514-10.587-2.908-16.943-3.651-19.508-3.839l-.345,2.673c-1.023,7.946-2.051,15.909-2.455,23.9-.093,1.827-.158,3.651-.132,5.437a38.861,38.861,0,0,0,.408,5.292,63.371,63.371,0,0,0,1.989,8.19c.443,1.522.885,3.047,1.242,4.478a77.96,77.96,0,0,1,2.006,12.819c.335,4.241.412,8.566.408,12.884,0,2.455-.037,4.934-.257,7.4a34.251,34.251,0,0,1-1.419,7.436l-.026.076a34.631,34.631,0,0,1-8.758,13.614,103.648,103.648,0,0,1-12.6,10.362,1.511,1.511,0,0,1-2.194-1.986,38.655,38.655,0,0,0,3.271-31.835,77.928,77.928,0,0,0-6.793-13.625c-1.846-3.174-3.694-6.35-5.238-9.7a101.148,101.148,0,0,1-8.134-26.718,70.336,70.336,0,0,1,.337-24.775c.3-1.442.661-2.917,1.023-4.394,1.023-4.174,2.047-8.356,1.732-12.5a19.623,19.623,0,0,0-10.36-15.635l-.073-.039a4.164,4.164,0,0,0-.641-.276,1.134,1.134,0,0,0-.417-.067c-.732.06-1.164,1.568-1.55,2.917-.082.287-.162.572-.27.915a12.139,12.139,0,0,1-3.995,5.651,24.825,24.825,0,0,1-5.782,3.453l-.538.235a1.25,1.25,0,0,0,.194.175c.777.57,2.135.233,3.5-.106a17.588,17.588,0,0,1,2.3-.464,8.9,8.9,0,0,1,5.063,1,11.475,11.475,0,0,1,4.111,3.647,15.569,15.569,0,0,1,2.107,4.58,26.763,26.763,0,0,1,.857,4.8c.581,6.007-.114,11.912-.812,17.824-.361,3.068-.721,6.141-.9,9.144a160.443,160.443,0,0,0,.57,20.45c.859,12.312,1.717,24.559-2.386,36.21l0,0a1.485,1.485,0,0,1-.771.857,1.5,1.5,0,0,1-2.01-.708,53.3,53.3,0,0,1-3.623-12.191c-.134-.626-.268-1.257-.458-2.125l-.1-.434a3.674,3.674,0,0,1-3-.639c-2.094-1.291-5.037-4.716-8.745-10.444C220.6,289.1,204.859,273.187,191.926,260.1c-5.009-5.063-9.6-9.708-13.21-13.629a25.766,25.766,0,0,1-3.4-4.67,82.272,82.272,0,0,0,3.643,17.7l.523,1.663c2.36,7.51,4.839,15.393,6.609,22.95a113.257,113.257,0,0,1,2.06,14.689c.853,8.794,1.725,17.77,5.884,24.919a46.2,46.2,0,0,0,3.52,4.955c.764.982,1.531,1.969,2.347,3.131a40.734,40.734,0,0,1,6.439,31.289,1.51,1.51,0,0,1-2.906.181,35.437,35.437,0,0,0-10-14.583c-3.83-3.336-8.354-5.828-12.877-8.322-1.872-1.032-3.744-2.064-5.657-3.206a50.467,50.467,0,0,1-9.213-6.853,26.281,26.281,0,0,1-6.506-9.526c-2.088-5.519-1.654-11.787-1.235-17.809.153-2.252.311-4.472.324-6.48a38.964,38.964,0,0,0-2.226-14.056,43.064,43.064,0,0,0-7.382-12.349c-1.019-1.248-2.148-2.578-3.28-3.91-4.595-5.413-9.213-10.854-11.848-17.52q-.573-1.451-1-2.921a91.927,91.927,0,0,0-14.089,5.251l-.846.369c-3.019,1.321-4.189,3.621-4.141,6.875a44.628,44.628,0,0,1,7.428,10.932c5.709,11.062,12.258,29.84,20.778,61.939,8.136,30.641,10.066,49.731,9.552,58.3-.168,2.824-.643,4.69-1.287,5.6-1.375,1.935-2.876,1.669-4.26-.762-1.134-2-2.3-6.51-3-13.353-1.179-11.552-4.755-28.132-8.965-44.7-5.817-22.879-12.828-45.646-16.419-55.114l-1.049-2.744c-2.926-7.667-5.314-13.927-5.826-18.826a14.447,14.447,0,0,0-6.756-3.528c-5.119-1.138-13.476,1.691-21.249,7.436a47.08,47.08,0,0,0-16.071,20.5c-5.923,15.5-21.087,61.278-31.473,92.632-1.976,5.975-3.716,11.228-6.432,19.383-2.969,8.9-6.75,18.029-10.5,27.074-7.717,18.636-15.274,36.89-14.9,51.1.263,10.04,2.164,22.514,5.167,36.16,3.358,15.27,8.088,31.956,13.441,48.316,5.126,15.667,15.151,37.825,26.727,59.9,6.864,13.089,14.274,26.144,21.529,37.792a8.609,8.609,0,0,1,1.63-3.142c3.293-3.6,7.853.147,15.082,12.72,11.26,19.586,31.386,31.11,62.546,48.953,4.061,2.325,8.322,4.765,13.322,7.663,19.64,11.385,32.844,15.678,40.213,17.075a51.2,51.2,0,0,1-9.66-11.863,101.393,101.393,0,0,1-11.826-27.31c-2.569-10-3.71-29.7-5.046-52.866-1.347-23.341-2.9-50.223-6.309-74.089-3.34-23.384-7.229-46.63-10.587-66.706-3.474-20.756-6.378-38.132-7.536-48.822a23.013,23.013,0,0,0-.818-4.2c-4.532.11-9.626-.037-14.875-.4a181.173,181.173,0,0,1-31.87-4.854c-9.876-2.634-25.561-5.268-40.876-3.565-10.584,1.175-20.981,4.424-29.1,11.189-5.469,4.556-9.239,6.668-11.349,7.084-2.207.436-3.355-.406-3.481-2.185a7.145,7.145,0,0,1,1.611-4.124c3-4.318,10.673-11.12,22.4-16.332,20.512-9.116,36.946-5.69,53.952-2.146,4.472.933,8.987,1.872,13.676,2.593a106.089,106.089,0,0,0,18,.833c11.55-.158,20.409-.279,24.11,8.81a50.955,50.955,0,0,0,9.069-1.09c10.507-2.5,21.409-3.528,32.325-4.554,14.965-1.41,29.957-2.82,43.9-8.119a116.562,116.562,0,0,1,18.63-5.832,85.307,85.307,0,0,1,20.435-1.339,42.728,42.728,0,0,1,4.523.4,36.146,36.146,0,0,1,17.362,7.149c4.42,3.545,6.951,7.879,6.812,11.893a9.328,9.328,0,0,1-.082.961,7.143,7.143,0,0,1-5.443,6.372,12.793,12.793,0,0,1,3.174,10.932c-.874,5.061-5.014,6.635-10.17,6.592-.449,0-.907-.019-1.369-.045a6.934,6.934,0,0,1,2.1,4.446,4.3,4.3,0,0,1-.244,1.419c-1.339,3.843-4.556,5.823-9.19,6.782a36.013,36.013,0,0,1-4.351.589,6.993,6.993,0,0,1,1.453,3.969c.166,4.843-.434,7.3-3.416,8.43-2.492.937-6.532.505-13.555-.371a42.623,42.623,0,0,1-13.933-4.236c-3.789-1.747-7.082-3.26-12.944-2.833-7.136.52-14.4-.654-21.363-1.781l-.272-.043a46.684,46.684,0,0,1-8.583-2.483c-3.863-1.395-7.672-2.77-12.1-2.483a42.152,42.152,0,0,0-7.626,1.291c-2.6.665-5.113,1.481-7.6,2.317a12.84,12.84,0,0,1-1.7.479,5.18,5.18,0,0,1-2.056.015l-.078-.017a4.686,4.686,0,0,1-3.263-2.77,8.176,8.176,0,0,1-.568-1.684l.013.49c.03,1.151.073,2.315.2,3.472a15.713,15.713,0,0,0,.641,3.2v0a3.86,3.86,0,0,0,.3.71.728.728,0,0,0,.231.27.783.783,0,0,0,.268.1l.041,0a4.291,4.291,0,0,0,.7.035c3.746-.043,7.482-1.252,11.18-2.451l1.388-.445.125-.045a48.568,48.568,0,0,1,6.8-1.727,21.148,21.148,0,0,1,7.2-.047c5.474.987,10.127,5.562,13.895,11.4,5.4,8.367,9.062,19.428,10.6,25.794,3.023,12.521,8.732,57.778,12.668,102.51,2.986,33.93,4.958,67.618,3.977,86.591-.4,7.713-2.194,13.838-4.951,18.662a29.925,29.925,0,0,1-15.963,13.333,49.606,49.606,0,0,1-19.787,2.66c-9.786-.507-18.623-3.215-22.594-5.45l-.093-.05c-1.79-1.021-5.128-2.669-9.554-4.85-21.9-10.787-70.014-34.5-89.02-60.471-3.178-4.342-6.488-9.19-9.861-14.4-.434,3.9-.728,8.909-.978,14.886C69.253,706.388,54.441,871.5,54.432,871.64a1.518,1.518,0,0,1-1.507,1.414M364.01,674.229c4.349-5.707,8.114-10.891,11.12-15.026,1.626-2.239,3.021-4.159,4.368-5.955.512-.682.9-1.192,1.362-1.8,10.248-13.413,54.107-70.833,55.526-126.195.369-14.41,1.049-26.122,1.628-36.1,1.786-30.8,2.61-45.006-9.751-68.043a370.415,370.415,0,0,1-19.558-42.487c-4.97-12.925-8.661-24.755-11.878-35.923-2.382-8.268-4.871-15.438-7.13-21.314a150.769,150.769,0,0,0-7.829-17.593l-.039-.073a38.735,38.735,0,0,0-3.206-4.059c-2.36,3.448-5.882,6.052-14.456,8.712-8.544,2.651-12.523,6.5-15.117,9.468.92-.672,1.853-1.33,2.785-1.971,5.091-3.491,9.276-5.972,12.618-6.732,3.945-.9,6.719.348,8.324,4.623A63.4,63.4,0,0,1,375.5,323.3a47.968,47.968,0,0,1,1.06,9.095c0,4.629-16.129,6.311-25.725,7.311-2.675.279-4.806.5-5.791.684-1.693.317-2.8-.473-3.615-1.948a4.5,4.5,0,0,1-.365.717,10.263,10.263,0,0,1-1.891,1.986c-.546.5-1.213,1.1-1.989,1.868.991.54,2.077,1.166,3.306,1.874,1.686.974,3.666,2.114,6.169,3.45a13.156,13.156,0,0,1,2.9-3.027,12.589,12.589,0,0,1,6.2-1.974,17.8,17.8,0,0,1,6.827.795,10.717,10.717,0,0,1,5.5,3.792,7.656,7.656,0,0,1,1.393,3.887,16.647,16.647,0,0,1-4.383,12.765,1.513,1.513,0,0,1-2.451-.4c-.009-.015-2.133-4.752-14.991-11.869a96.558,96.558,0,0,0-5.985,13.7c-.337.9-.639,1.708-.872,2.31a1.979,1.979,0,0,1-.086.181c-.387.721-2.768,4.213-10.863.434l0,.007a25.6,25.6,0,0,0-10.325-2.507,33.47,33.47,0,0,0-8.533.989,48.187,48.187,0,0,1,15.315,1.324c4.975,1.276,9.464,3.416,12.325,6.467a47.215,47.215,0,0,1,7.754,11.543,106.3,106.3,0,0,1,6.173,16.222c2.831,9.339,7,12.184,10.749,14.737,1.058.723,2.086,1.423,3.111,2.278,2.835,2.362,6.717,10.72,8.788,23.149a123.035,123.035,0,0,1,.808,32.5c-.946,9.2-1.745,23.717-2.652,40.2-1.986,36.1-4.489,81.594-10.228,101.936-5.1,18.1-9.06,46.216-9.384,61.317a43.488,43.488,0,0,0,.339,7.711c.592-.717,1.175-1.436,1.753-2.148,2.973-5.348,5.78-8.535,8.175-10.418m-12.867,13.277a44.822,44.822,0,0,1-.415-8.479c.328-15.307,4.329-43.778,9.49-62.075,5.651-20.033,8.145-65.337,10.122-101.286.907-16.509,1.708-31.052,2.662-40.338a119.838,119.838,0,0,0-.784-31.695c-1.948-11.683-5.331-19.323-7.736-21.326-.864-.721-1.859-1.4-2.885-2.1-4.156-2.835-8.79-5.994-11.932-16.358a103.3,103.3,0,0,0-6-15.76,44.252,44.252,0,0,0-7.244-10.811c-2.449-2.608-6.417-4.474-10.872-5.616a44.6,44.6,0,0,0-15.777-1.084l-.313.037c-4.584.551-7.048.844-8.054-.447l-1.745.548c-2.794.883-5.135,1.624-7.216,2.094a5.5,5.5,0,0,0-3.122,2.369,1.748,1.748,0,0,0-.3.98.987.987,0,0,0,.436.663c1.136.9,3.783,1.5,8.844,1.326a29.222,29.222,0,0,1,7.145.62c4.683-.056,9.118.244,12.022,1.144a33.91,33.91,0,0,1,13.035,8.082,8.728,8.728,0,0,1,1.725,2.524,2.592,2.592,0,0,1-.516,3.083,3.983,3.983,0,0,1-2.8.866c-2.978,0-5.754-2.138-9.159-4.759-3.779-2.911-8.421-6.482-14.689-7.918-.928.015-1.87.045-2.807.086-7.793.343-15.345,1.416-16.334,2.12a3.416,3.416,0,0,0-1.164,3.066,3.732,3.732,0,0,0,.684,1.6c.894,1.25,2.658,2.531,5.782,3.649a65.375,65.375,0,0,1,13.907,2.673c6.512,2.019,11.843,5.366,14.335,7.866a7.493,7.493,0,0,1,1.578,2.118,2.284,2.284,0,0,1-.389,2.8,3.076,3.076,0,0,1-2.194.732c-2.461,0-5.446-1.894-9.291-4.331-4.424-2.8-10.079-6.389-16.9-8.36-.577-.166-1.125-.341-1.645-.518l-.689-.048c-4.7-.283-8.272.073-9.442.885-.1.173,0,.65.24,1.328a15.572,15.572,0,0,0,2.025,3.612,33.893,33.893,0,0,0,6.046,6.4q.515.139,1.06.315a91.912,91.912,0,0,1,13.443,5.972c5.64,2.915,9.149,5.027,10.673,6.348a3.938,3.938,0,0,1,1.2,1.531l-.006,0a1.679,1.679,0,0,1-1.155,2.41,5.73,5.73,0,0,1-2.526.1c-2.518-.315-6.726-2.522-11.1-5.212-4.245-2.608-8.708-5.694-11.841-7.877l0,0L288,410.67c-.19-.138-.38-.285-.57-.43-2.051-.525-3.442-.564-4.182-.086-.438.283.669,2.228,2.211,4.629.82,1.276,1.79,2.654,2.749,4.02.872,1.239,1.738,2.472,2.47,3.589a30.691,30.691,0,0,0,8.486,8.641,22.128,22.128,0,0,0,10.019,3.7h.006c7.246.743,8.764,2.3,10.651,4.228a14.528,14.528,0,0,0,2.133,1.889,9.407,9.407,0,0,0,4.381,1.369c2.377.311,4.39.574,5.564,3.213.209.466.456,1.131.76,1.948,1.885,5.072,6.173,16.6,14.931,16.028q.768-.052,1.49-.168l.043-.007a17.779,17.779,0,0,0,11.37-7.279,22.519,22.519,0,0,0,4.094-14.812c-.054-.8-.145-1.6-.274-2.4-.639-3.956-.661-6.4-.348-7.566.46-1.727,1.451-2.187,2.775-1.544a4.116,4.116,0,0,1,1.645,2.025c1.118,2.4,2.328,7.538,2.328,14.009a34.551,34.551,0,0,1-.71,6.918,29.375,29.375,0,0,1-6.724,13.825,16.625,16.625,0,0,1-16.265,5.638,57.79,57.79,0,0,1-10.647-3.416,13.627,13.627,0,0,0-4.005-1.3c-.289.024-.339.941-.142,3.509l.045.594c.8,10.319,2.96,38.33,2.218,97.643-.406,32.494-6.668,53.021-11.945,70.312-4.519,14.819-8.3,27.225-6.927,42.737,1.481,16.678,2.924,27.245,6.16,31.054,2.727,3.209,7.559.635,16.233-8.3,4.811-4.953,9.425-10.153,13.739-15.3a9.158,9.158,0,0,1-.62-2.084M305.917,365.644q1.166-.334,2.408-.669l.007,0a38.907,38.907,0,0,1,11.258-1.557,28.579,28.579,0,0,1,11.532,2.777v.006c5.836,2.725,6.8,1.142,6.877.982.266-.689.54-1.419.842-2.23a97.668,97.668,0,0,1,6.178-14.069c-2.323-1.246-4.321-2.4-6.031-3.381-1.542-.89-2.824-1.63-3.971-2.2a63.606,63.606,0,0,0-5.659,7.495c-6.229,9.526-9.343,11.353-11.455,9.971-1.267-.829-1.749-2.578-2.278-4.5-.08-.289-.16-.576-.3-1.06-.382-1.3-.721-1.909-1.09-1.738-1.257.581-3.168,2.811-6.029,6.925Zm31.224-26.733a10.552,10.552,0,0,0,1.347-1.326c.22-.361-.518.257-1.3-.22a4.766,4.766,0,0,1-1.077-.883c-1.274-1.419-1.319-3.2-.449-5.208a17.188,17.188,0,0,1,2.874-4.251,23.447,23.447,0,0,0-2.077-6.078c-2.384-1.229-5.027-2.883-7.592-4.491-3.669-2.3-7.171-4.5-9.064-4.94-2.949-.7-7.071,14.879-8.982,22.106-.16.6-.291,1.1-.538,2.006-.2.73-.587.937-.469.97.795.218,3.353-1.006,6.29-2.41,1.673-.8,3.457-1.652,5.18-2.341,2.425-.969,4.036-1.272,4.938-1.147a1.892,1.892,0,0,1,1.79,1.574,2.438,2.438,0,0,1-.535,1.894,14.054,14.054,0,0,1-4.986,3.561c-.8.378-1.522.7-2.241,1.03-4.418,2-8.723,3.943-12.139,9.179a9.124,9.124,0,0,0-1.408,2.848,4.728,4.728,0,0,0,.609-.067c2.075-.335,5.776-1.986,11.226-5.186,8.252-4.845,11.306-5.754,15.782-3.917,1.129-1.16,2.081-2.025,2.824-2.7m3.306-2.986c-.428-1.479-.764-3.213-1.118-5.04a9.51,9.51,0,0,0-.9,1.581c-.382.883-.445,1.581-.071,2a1.786,1.786,0,0,0,.406.326,17.024,17.024,0,0,1,1.686,1.138m1.371-8.015c.166.805.322,1.606.475,2.388.762,3.932,1.41,7.272,2.2,7.125,1.095-.207,3.288-.434,6.037-.721,8.583-.894,23.006-2.4,23.006-4.308a44.737,44.737,0,0,0-.989-8.5,60.213,60.213,0,0,0-2.591-9.079c-.941-2.516-2.554-3.252-4.834-2.734-2.883.656-6.767,2.984-11.58,6.285a79.362,79.362,0,0,0-11.72,9.546m.95-5.063a5.05,5.05,0,0,1-.551.028,6.845,6.845,0,0,1-1.775-.274c.205.6.393,1.226.566,1.859.559-.533,1.147-1.073,1.76-1.613m-4.178-4.18a9.556,9.556,0,0,0,3.627,1.181c1.164,0,2.161-1.175,3.593-2.865,2.809-3.319,6.979-8.24,17.47-11.5,8.116-2.518,11.18-4.949,13.281-8.244a106.444,106.444,0,0,1-7.462-9.587l-.006-.006a166.74,166.74,0,0,0-10.744-14.227c-5.225,7.106-13.238,19.528-18.008,29.62-3.226,6.823-5.024,12.366-3.373,13.769a8.99,8.99,0,0,1,1.622,1.855m21.618-47.718a169.552,169.552,0,0,1,11.4,15.035,96.834,96.834,0,0,0,6.5,8.421c.214-.436.428-.885.652-1.35a65.735,65.735,0,0,1,4.642-8.46c6.29-9.552,4.154-11.133-3.435-16.74-.609-.451-1.248-.922-2.153-1.6-8.622-6.467-10.4-4.817-17.61,4.7m3.91,90.08a13.841,13.841,0,0,0,2.345-8.993,4.676,4.676,0,0,0-.849-2.373A7.766,7.766,0,0,0,361.635,347a14.78,14.78,0,0,0-5.657-.652,7.876,7.876,0,0,0-6.657,3.424c8.863,4.949,13,9.021,14.8,11.252M321.605,387.32c2.947,2.269,5.353,4.122,7.313,4.122.173,0,.313,0,.423-.006a6.969,6.969,0,0,0-1.054-1.4,30.415,30.415,0,0,0-11.7-7.242,16.818,16.818,0,0,0-2.2-.5,65.057,65.057,0,0,1,7.216,5.024M310.8,401.627c2.928,1.857,5.3,3.358,6.914,3.753-.112-.125-.238-.259-.378-.4-2.118-2.125-6.618-4.96-12.238-6.838,2.086,1.19,3.984,2.392,5.7,3.483m-2.684,18.185q-1.992-1.16-4.873-2.677c1.747,1.045,3.416,1.974,4.873,2.677m20.178-147.247c-2.012,12.035-4.837,28.912-1.568,34.176.913-2.926,1.045-12.584,1.162-21.078.067-4.934.13-9.492.371-12.258.032-.361.058-.728.078-1.095Zm-98.2-43.063a12.153,12.153,0,0,1,.626-3.418c.281-.877.812-2.088,1.434-3.509,1.874-4.28,4.673-10.671,2.969-12.683a.6.6,0,0,0-.41-.106,4.56,4.56,0,0,0-1.339.255q-1.545.486-3,1.054-1.525.6-2.926,1.252a18.932,18.932,0,0,1-3.861,1.455,5.815,5.815,0,0,1-4.552-.635h-.006a3.82,3.82,0,0,1-1.11-1.071,2.807,2.807,0,0,1-.488-1.559h.007a2.85,2.85,0,0,1,.868-2.025,5.371,5.371,0,0,1,1.321-.965,35.546,35.546,0,0,1,6.08-2.384c.9-.294,1.807-.587,2.772-.944l.13-.041c1-.339,12.8-4.642,21.922-21.834,6.091-11.48,6.516-20.64,6.974-30.456a115.112,115.112,0,0,1,1.941-18.573,65.838,65.838,0,0,0,.672-24.466c-1.209-6.426-3.591-10.934-6.8-11.9-5.679-1.7-14.907-3.079-25.362-4.638-2.954-.443-6.018-.9-9.922-1.514-8.08-1.267-19.5-1.453-29.195.941-7.093,1.751-13.214,4.871-16.259,9.943-3.8,6.331-6.439,21.6-7.225,37.877-.747,15.464.2,31.74,3.455,42.033,2.824,8.943,3.247,18.856,3.656,28.456.227,5.294.447,10.492,1.075,15.337a18.8,18.8,0,0,1,.868-2.5,1.513,1.513,0,0,1,2.664-.281c.024.037,14.89,28.659,11.5,20.359-1.414-3.457-4.29-11.3-5.072-17.051a13.874,13.874,0,0,1,.06-5.132,3.616,3.616,0,0,1,3.364-3.09,6.429,6.429,0,0,1,3.1.693,50.821,50.821,0,0,1,12.027,7.227,33.188,33.188,0,0,1,8.22,10.438c1.766,3.412,4.431,4.308,6.9,5.135l.374.127a15.8,15.8,0,0,1,4-6.791c2.444-2.4,5.489-3.746,8.546-5.027m-6.43,7.179a12.914,12.914,0,0,0-3.3,5.756c2.012,1.028,3.66,2.645,4.474,6.136a51.393,51.393,0,0,0,3.178,9.362c1.8,4.372,4.623,11.208,9.8,26.433,4.074,11.986,5.955,20.474,5.843,24.9a11.277,11.277,0,0,1-.1,1.237q.392,1.619.749,3.245c.121.548.287,1.339.458,2.138.538,2.537,1.077,5.085,1.84,7.518,2.451-9.868,1.719-20.338.982-30.855a162.864,162.864,0,0,1-.568-20.819c.184-3.155.548-6.24.911-9.319.68-5.772,1.358-11.537.81-17.2a23.705,23.705,0,0,0-.762-4.258,12.609,12.609,0,0,0-1.682-3.692,8.424,8.424,0,0,0-3.012-2.677,5.908,5.908,0,0,0-3.349-.684,14.982,14.982,0,0,0-1.911.393c-2.053.51-4.094,1.015-6.011-.391a4.374,4.374,0,0,1-1.255-1.41,22.239,22.239,0,0,0-7.1,4.182m-6.769,7.6-.682-.231c-3.025-1.017-6.3-2.116-8.624-6.614a30.25,30.25,0,0,0-7.486-9.516,48.18,48.18,0,0,0-11.316-6.78,3.671,3.671,0,0,0-1.643-.432c-.32.024-.529.333-.659.833a11.138,11.138,0,0,0,.013,3.973c.738,5.452,3.507,12.988,4.869,16.319,7.138,17.459-9.576-6.808-15.1-15.015a36.586,36.586,0,0,0-1.052,6.866,26.491,26.491,0,0,0,5.728,10.738c3.617,3.934,8.17,8.54,13.137,13.56,13.031,13.178,28.882,29.212,37.963,43.247,3.448,5.331,6.063,8.442,7.8,9.509.337.207.417.389.451.358a.865.865,0,0,0,.2-.419,165.06,165.06,0,0,0-6.186-19.6,207.058,207.058,0,0,0-10.129-22.236l-.81-1.529c-2.533-4.78-5.091-9.608-6.193-15.011a23.883,23.883,0,0,1-.276-8.024m3.232,7.419c1.011,4.968,3.472,9.611,5.91,14.21l.808,1.527c2.429,4.621,4.709,9.321,6.8,14.1-4.342-12.554-6.8-18.517-8.425-22.456a53.554,53.554,0,0,1-3.332-9.822,5.958,5.958,0,0,0-2.123-3.567,21.011,21.011,0,0,0,.358,6.011M262.7,106.46c-.469-3.442-.846-6.171-1.175-8.427a27.514,27.514,0,0,0-3.966-1.954c2.313,2.192,4.061,5.817,5.141,10.381M198.84,87.139c-10.79-.045-19.2,1.514-26.036,4.245a46.02,46.02,0,0,0-9.209,4.936c-.078,2.112-1.045,5.379-2.4,9.941-1.453,4.9-3.375,11.379-5.126,19.316-.961,4.355-1.859,7.959-2.677,11.252-3.377,13.555-5.45,21.881-3.2,46.22,1.067,11.511,1.252,19.819,1.4,26.34.238,10.6.367,16.36,4.1,23.479,2.768,5.284,3.427,10.021,2.686,13.2a6.867,6.867,0,0,1-1.773,3.383,4.691,4.691,0,0,1-3.39,1.382c-1.827,0-3.951-.982-6.149-3.181h-.006c-2.818-2.818-7-3.252-11.552-2.528.248.816.527,1.626.844,2.427,2.457,6.216,6.909,11.463,11.34,16.68,1.088,1.283,2.176,2.565,3.314,3.958a45.985,45.985,0,0,1,7.881,13.212,41.938,41.938,0,0,1,2.4,15.108c-.017,2.217-.168,4.426-.326,6.67-.4,5.7-.805,11.645,1.049,16.544a23.292,23.292,0,0,0,5.785,8.427,47.345,47.345,0,0,0,8.658,6.426c1.766,1.058,3.666,2.1,5.56,3.148,4.677,2.576,9.349,5.152,13.411,8.689a38.3,38.3,0,0,1,6.434,7.246,38.834,38.834,0,0,1,2.218,3.656,37.834,37.834,0,0,0-.713-9.915,37.276,37.276,0,0,0-5.934-13.864c-.65-.928-1.457-1.965-2.263-3a47.8,47.8,0,0,1-3.744-5.3c-4.485-7.706-5.387-17.019-6.275-26.146a110.711,110.711,0,0,0-2-14.287c-1.747-7.46-4.208-15.285-6.551-22.739l-.523-1.663c-3.537-11.262-4.208-20.022-3.88-26.241-2.021-7.162-2.375-15.453-2.738-23.987-.4-9.384-.814-19.074-3.526-27.666-3.358-10.632-4.346-27.3-3.584-43.085.805-16.71,3.6-32.533,7.65-39.282,3.517-5.86,10.319-9.4,18.127-11.325a67.242,67.242,0,0,1,10.714-1.676M134.765,242.194c5.484-.922,10.714-.4,14.434,3.321l0,0c1.6,1.593,2.967,2.3,4.02,2.3a1.762,1.762,0,0,0,1.274-.518,3.915,3.915,0,0,0,.944-1.92c.6-2.563-.006-6.529-2.412-11.12-4.057-7.743-4.193-13.752-4.439-24.816-.147-6.471-.33-14.717-1.386-26.126-2.3-24.857-.184-33.362,3.265-47.213.833-3.355,1.749-7.028,2.667-11.18,1.788-8.1,3.714-14.6,5.173-19.517.786-2.652,1.429-4.822,1.835-6.454a60.11,60.11,0,0,0-6.944,6.907c-5.182,6-8.179,12.9-9.749,22.076-1.6,9.349-1.727,21.052-1.166,36.512,1.1,30.145-4.049,44.624-4.491,45.807a125.77,125.77,0,0,0-3.593,19.023,44.906,44.906,0,0,0,.572,12.912M171.694,88.581c8.8-3.511,19.979-5.182,35.074-4.174a277.719,277.719,0,0,1,36.97,4.612c7.365,1.531,13.184,3.323,17.213,5.286a82.708,82.708,0,0,0-2.816-11.93c-.5-1.714-1-3.61-1.524-5.627-3-11.461-7.056-26.943-17.926-31.017-7.324-2.749-17.794-4.226-29.5-2.749A77.3,77.3,0,0,0,179.42,53.257C158.2,65.828,156.688,73.83,154.947,83.017l-.281,1.483c-.246,1.263-.421,2.42-.574,3.4-.557,3.66-.836,5.48-3.42,5.392a4.389,4.389,0,0,1-1.326-.289c-.076,1.276-.108,2.494-.108,3.634,0,3.638.138,4.9.363,4.9.542,0,1.982-1.527,3.554-3.191,1.989-2.112,4.15-4.4,6.365-5.1a3.226,3.226,0,0,1,3.014.145,49.118,49.118,0,0,1,9.159-4.811m93.4,13.182c.328,2.364.706,5.143,1.157,8.462,1.015,7.464,2.408,17.716,4.506,32.563,4.642,32.865,2.12,54.045-.406,75.237-1.486,12.487-2.975,24.978-2.975,39.88,0,25.988,7.581,40.042,12.757,46.611-.974-2.962-2.133-6.888-3.286-11.735-2.144-9.006-.291-14.5,2.66-23.261,1.09-3.237,2.338-6.938,3.584-11.452a105.344,105.344,0,0,0,3.7-25.226,76,76,0,0,0-2.565-22.633c-3.429-11.757-3.522-16.807-3.826-33.576-.052-2.883-.11-6.115-.194-9.835-.274-12.055-2.913-27.4-6.329-40.567-2.762-10.649-5.977-19.793-8.784-24.468m-72.59-57.927q-3.349.978-6.955,2.166c-12.811,4.219-21.216,11.079-26.673,18.686a53.081,53.081,0,0,0-9.269,25.187,3.257,3.257,0,0,0,1.155.406c.1,0,.048-.941.337-2.826.149-.98.326-2.133.594-3.519l.283-1.473c1.876-9.909,3.509-18.539,25.9-31.807a81.32,81.32,0,0,1,14.626-6.819M146.766,88.2a55.706,55.706,0,0,1,9.654-25.28c5.8-8.075,14.687-15.348,28.188-19.8,16.2-5.335,28.53-7.527,38.514-7.335a45.989,45.989,0,0,1,24.645,7.117c8.509,5.353,10.921,14.87,12.662,21.743.952,3.759,1.667,6.577,2.606,6.722,2.235.343,5.232-.024,9.8-1.455a171.371,171.371,0,0,0,19.9-8.227c10.844-5.078,13.471-6.389,12.618-8.209a23.138,23.138,0,0,0-2.511-3.539c-.553-.7-1.168-1.481-2-2.587-3.481-4.638-10.632-12.139-18.124-19.18-6.89-6.469-14.035-12.519-18.833-15.54-1.231-.773-2.343-1.509-3.44-2.233C252.193,4.945,244.9.13,228.546,5.253c-10.807,3.392-52.02,18.351-86.293,31.261-26.416,9.954-48.6,18.552-49.064,19.366-.1.19.114.669.523,1.378a3.666,3.666,0,0,1,3.193.11c3.312,1.449,13.655,7.985,25.574,15.516q7.151,4.518,15.089,9.488c2.094,1.3,4.223,2.667,6.018,3.813,1.233.788,2.284,1.46,3.18,2.019M92.933,65.26c-.991,5-1.425,12.981-1.425,23.829,0,8.114-.389,25.6-.8,44.378-.667,30.125-1.41,63.589-.732,67.434a18.717,18.717,0,0,0,3.3,7.408,10.579,10.579,0,0,0,2.461,2.513c.544.361.985.535,1.237.436a.53.53,0,0,0,.188-.149c.659-.754.836-16.762.782-37.6-.106-38.276-1.289-92.306-1.531-99.839A23.837,23.837,0,0,0,93.5,62.859q-.3,1.02-.572,2.4m26.126,212,1.049,2.755c3.627,9.565,10.688,32.477,16.524,55.433,4.234,16.658,7.836,33.386,9.036,45.145.564,5.53,1.4,9.328,2.235,11.344a22.924,22.924,0,0,0,.3-2.705c.5-8.341-1.416-27.068-9.457-57.353-8.46-31.866-14.929-50.448-20.543-61.324a56.949,56.949,0,0,0-3.712-6.285c1.006,3.649,2.66,7.985,4.569,12.99m-35.4,399.582c18.569,25.377,66.231,48.863,87.918,59.549,4.513,2.222,7.916,3.9,9.721,4.932l.071.043c3.677,2.068,11.968,4.584,21.268,5.065a46.58,46.58,0,0,0,18.58-2.472,26.967,26.967,0,0,0,14.393-11.994c2.535-4.437,4.187-10.12,4.56-17.33.969-18.781-1-52.331-3.979-86.176-3.928-44.635-9.6-89.687-12.582-102.059-1.486-6.149-5.014-16.827-10.209-24.872-3.358-5.2-7.374-9.248-11.889-10.062a18.174,18.174,0,0,0-6.18.063,45.544,45.544,0,0,0-6.372,1.63l-.123.035-1.38.445c-3.908,1.265-7.855,2.541-12.068,2.593a7.036,7.036,0,0,1-1.209-.071l-.06-.011a3.53,3.53,0,0,1-2.608-1.814,6.788,6.788,0,0,1-.568-1.306,18.594,18.594,0,0,1-.773-3.811c-.132-1.222-.175-2.472-.209-3.712v-.013q-.181-6.73,0-13.463.188-6.8.73-13.422a15.553,15.553,0,0,1,.289-2.142,6.391,6.391,0,0,1,.972-2.3,4.58,4.58,0,0,1,2.5-1.742,3.5,3.5,0,0,1,2.971.458,1.515,1.515,0,0,1,.611,1.572q-1.091,6.672-1.689,13.5-.606,6.9-.689,13.679a8.947,8.947,0,0,0,.607,3.7,1.834,1.834,0,0,0,1.2,1.116l.037.011a2.444,2.444,0,0,0,.879-.032,10.489,10.489,0,0,0,1.3-.374c2.6-.872,5.21-1.723,7.81-2.386a44.778,44.778,0,0,1,8.183-1.375c5.048-.328,9.155,1.155,13.32,2.66a44.491,44.491,0,0,0,8.028,2.341l.27.045c6.784,1.1,13.866,2.243,20.681,1.745,6.627-.486,10.252,1.183,14.421,3.1a39.984,39.984,0,0,0,13.035,3.977c6.557.818,10.3,1.235,12.124.546,1.332-.5,1.583-2.146,1.466-5.506a5.456,5.456,0,0,0-2.446-3.871c-2.379.052-4.951.017-7.678-.045-7.238-.164-10.887-2.41-12.383-4.409a4.982,4.982,0,0,1-.922-1.954,2.952,2.952,0,0,1,.242-2.012,2.111,2.111,0,0,1,2.269-1.136c1.315.188,10.552,1.719,17.027,5.091l.089.041a22.505,22.505,0,0,1,2.3,1.382,41.448,41.448,0,0,0,6.808-.7c3.571-.738,6.016-2.155,6.942-4.819a1.274,1.274,0,0,0,.067-.425c0-1.479-1.833-3.319-4.528-5.171-2.623-.5-5.223-1.175-7.516-1.786a99.573,99.573,0,0,1-14.568-5,9.244,9.244,0,0,1-2.034-1.239c-1.326-1.2-1.371-2.259.194-3.12a5.123,5.123,0,0,1,2.36-.406,31.551,31.551,0,0,1,8.857,2.034,67.073,67.073,0,0,1,13.109,6.167c.259.166.514.33.764.5a34.015,34.015,0,0,0,5.685.609c3.688.03,6.624-.944,7.166-4.085.62-3.6-.659-6.912-3.647-9.641l-.263-.235c-4.342.166-9.863-.976-15.589-2.265-11.634-2.619-14.419-4.778-14.426-4.785a1.506,1.506,0,0,1-.434-1.937c.006-.009,1.66-3.245,16.624-.192,6.316,1.291,11.3,3.394,14.81,6.085,2.854-.324,4.793-1.527,5.182-4.254a5.762,5.762,0,0,0,.058-.63c.106-3.047-2.006-6.491-5.687-9.444a33.117,33.117,0,0,0-15.9-6.51,39.292,39.292,0,0,0-4.191-.371,82.531,82.531,0,0,0-19.75,1.28,114.276,114.276,0,0,0-18.157,5.7c-14.3,5.435-29.51,6.868-44.691,8.3-10.77,1.015-21.525,2.027-31.9,4.5a51.958,51.958,0,0,1-8.825,1.118,31.78,31.78,0,0,1,.678,4c1.144,10.584,4.044,27.929,7.512,48.647,3.362,20.1,7.253,43.372,10.6,66.778,3.424,23.969,4.981,50.936,6.333,74.348,1.33,23.024,2.462,42.6,4.953,52.289a98.209,98.209,0,0,0,11.472,26.457c4.774,7.639,9.649,12.912,12.666,13.165a5.141,5.141,0,0,1,2.2.568c2.183,1.395,1.969,2.718-1.121,3.226a15.428,15.428,0,0,1-3.71-.017c-6.59-.654-21.244-4.366-44.67-17.945-4.29-2.485-8.9-5.128-13.311-7.652-31.58-18.086-51.976-29.765-63.655-50.076-5.791-10.068-8.874-13.685-10.248-12.187-.706.769-1.259,2.3-1.706,4.521,3.984,6.266,7.9,12.063,11.625,17.159M172.97,472.6q.152-2.465.365-4.906.531-6.066,1.475-12.156a1.415,1.415,0,0,0-.378.365,3.347,3.347,0,0,0-.5,1.216,12.9,12.9,0,0,0-.218,1.727q-.554,6.7-.732,13.27Zm85.874,8.356.08.112c1.077,1.44,3.949,3.064,10.03,3.2l2.107.041a65.169,65.169,0,0,0-12.217-3.355m23.645-30.207a83.76,83.76,0,0,0-9.976-1.574,88.72,88.72,0,0,0,9.477,2.587c3.373.76,6.665,1.466,9.626,1.87a41.39,41.39,0,0,0-9.127-2.883m-132.864-.06c-3.573-6.128-11.044-6.026-20.6-5.9a108.84,108.84,0,0,1-18.483-.857c-4.679-.719-9.282-1.678-13.843-2.628-16.527-3.446-32.5-6.773-52.119,1.945-11.154,4.955-18.366,11.3-21.136,15.292a9.511,9.511,0,0,0-.92,1.563c1.755-.469,4.949-2.388,9.727-6.37,8.639-7.2,19.59-10.643,30.7-11.876,15.758-1.751,31.85.948,41.975,3.647a177.934,177.934,0,0,0,31.3,4.761c4.714.326,9.28.475,13.4.419" transform="translate(-0.001 0)" fill="#0d3979"/>
      </g>
    </g>
  </g>
</svg>
