<svg xmlns="http://www.w3.org/2000/svg" xmlns:xlink="http://www.w3.org/1999/xlink" width="287" height="449" viewBox="0 0 287 449">
  <defs>
    <clipPath id="clip-path">
      <rect id="Rectangle_24" data-name="Rectangle 24" width="287" height="449" transform="translate(0 1711)" fill="#fff" stroke="#707070" stroke-width="1"/>
    </clipPath>
    <clipPath id="clip-path-2">
      <rect id="Rectangle_15" data-name="Rectangle 15" width="512.422" height="485.932" fill="none" stroke="#2b488b" stroke-width="3"/>
    </clipPath>
  </defs>
  <g id="Mask_Group_5" data-name="Mask Group 5" transform="translate(0 -1711)" clip-path="url(#clip-path)">
    <g id="Group_52" data-name="Group 52" transform="matrix(0.208, -0.978, 0.978, 0.208, -175.926, 2116.098)">
      <g id="Group_18" data-name="Group 18" clip-path="url(#clip-path-2)">
        <path id="Path_71" data-name="Path 71" d="M.5,484.677C2.021,442.6,7.942,398.765,32.222,364.005s71.631-57.141,111.528-41.549c10.586,4.137,20.73,11.433,24.249,22.056s-2.354,24.436-13.572,26.44c-12.649,2.258-23.128-10.758-25.187-23.189-3.568-21.558,8.735-43.545,26.593-56.636s40.382-18.551,62.546-20.907,44.58-1.918,66.689-4.723c32.814-4.167,65.175-15.863,90.4-36.859s42.684-51.852,43.538-84.26c.765-29.072-11.382-58.187-5.491-86.693a72.658,72.658,0,0,1,36.4-48.471,75.3,75.3,0,0,1,61.253-4.046" transform="translate(0.377 0.377)" fill="none" stroke="#2b488b" stroke-linecap="round" stroke-linejoin="round" stroke-width="3"/>
      </g>
    </g>
  </g>
</svg>
